<?xml version="1.0" encoding="iso-8859-1"?>
<!-- Generator: Adobe Illustrator 18.0.0, SVG Export Plug-In . SVG Version: 6.00 Build 0)  -->
<!DOCTYPE svg PUBLIC "-//W3C//DTD SVG 1.1//EN" "http://www.w3.org/Graphics/SVG/1.1/DTD/svg11.dtd">
<svg version="1.1" id="Capa_1" xmlns="http://www.w3.org/2000/svg" xmlns:xlink="http://www.w3.org/1999/xlink" x="0px" y="0px"
	 viewBox="0 0 60 60" style="enable-background:new 0 0 60 60;" xml:space="preserve">
<g>
	<path d="M0,6.232v37.962c5.233-4.049,16.986-13.204,22.449-17.944L0,6.232z"/>
	<path d="M38.431,28.511C40.912,26.93,43.847,26,47,26c4.262,0,8.13,1.685,11,4.411V6.232L35.587,26.217L38.431,28.511z"/>
	<path d="M31.299,27.361L56.376,5H1.624l25.076,22.36C27.968,28.493,30.031,28.493,31.299,27.361z"/>
	<path d="M36.753,29.727l-2.679-2.161l-1.444,1.287c-1,0.893-2.315,1.34-3.63,1.34s-2.63-0.447-3.631-1.34l-1.414-1.261
		c-5.521,4.814-17.851,14.41-23.007,18.398C0.966,45.99,0.981,46,1,46h30.527C31.195,44.719,31,43.383,31,42
		C31,37.074,33.241,32.664,36.753,29.727z"/>
	<path d="M47,29c-7.168,0-13,5.832-13,13s5.832,13,13,13s13-5.832,13-13S54.168,29,47,29z M47,53c-6.065,0-11-4.935-11-11
		s4.935-11,11-11s11,4.935,11,11S53.065,53,47,53z"/>
	<path d="M51.95,37.05c-0.391-0.391-1.023-0.391-1.414,0L47,40.586l-3.536-3.536c-0.391-0.391-1.023-0.391-1.414,0
		s-0.391,1.023,0,1.414L45.586,42l-3.536,3.536c-0.391,0.391-0.391,1.023,0,1.414c0.195,0.195,0.451,0.293,0.707,0.293
		s0.512-0.098,0.707-0.293L47,43.414l3.536,3.536c0.195,0.195,0.451,0.293,0.707,0.293s0.512-0.098,0.707-0.293
		c0.391-0.391,0.391-1.023,0-1.414L48.414,42l3.536-3.536C52.34,38.074,52.34,37.441,51.95,37.05z"/>
</g>
<g>
</g>
<g>
</g>
<g>
</g>
<g>
</g>
<g>
</g>
<g>
</g>
<g>
</g>
<g>
</g>
<g>
</g>
<g>
</g>
<g>
</g>
<g>
</g>
<g>
</g>
<g>
</g>
<g>
</g>
</svg>
