<?xml version="1.0" encoding="iso-8859-1"?>
<!-- Generator: Adobe Illustrator 18.0.0, SVG Export Plug-In . SVG Version: 6.00 Build 0)  -->
<!DOCTYPE svg PUBLIC "-//W3C//DTD SVG 1.1//EN" "http://www.w3.org/Graphics/SVG/1.1/DTD/svg11.dtd">
<svg version="1.1" id="Capa_1" xmlns="http://www.w3.org/2000/svg" xmlns:xlink="http://www.w3.org/1999/xlink" x="0px" y="0px"
	 viewBox="0 0 60 60" style="enable-background:new 0 0 60 60;" xml:space="preserve">
<g>
	<path d="M52.179,36.5l-5.596,8.04l-3.949-3.242c-0.426-0.351-1.057-0.288-1.407,0.139s-0.289,1.057,0.139,1.407l4.786,3.929
		C46.331,46.92,46.556,47,46.786,47c0.045,0,0.091-0.003,0.137-0.009c0.276-0.039,0.524-0.19,0.684-0.419l6.214-8.929
		c0.315-0.453,0.204-1.077-0.25-1.392C53.117,35.935,52.495,36.046,52.179,36.5z"/>
	<path d="M0,6.232v37.962c5.233-4.049,16.986-13.204,22.449-17.944L0,6.232z"/>
	<path d="M38.431,28.511C40.912,26.93,43.847,26,47,26c4.262,0,8.13,1.685,11,4.411V6.232L35.587,26.217L38.431,28.511z"/>
	<path d="M31.299,27.361L56.376,5H1.624l25.076,22.36C27.968,28.493,30.031,28.493,31.299,27.361z"/>
	<path d="M36.753,29.727l-2.679-2.161l-1.444,1.287c-1,0.893-2.315,1.34-3.63,1.34s-2.63-0.447-3.631-1.34l-1.414-1.261
		c-5.521,4.814-17.851,14.41-23.007,18.398C0.966,45.99,0.981,46,1,46h30.527C31.195,44.719,31,43.383,31,42
		C31,37.074,33.241,32.664,36.753,29.727z"/>
	<path d="M47,29c-7.168,0-13,5.832-13,13s5.832,13,13,13s13-5.832,13-13S54.168,29,47,29z M47,53c-6.065,0-11-4.935-11-11
		s4.935-11,11-11s11,4.935,11,11S53.065,53,47,53z"/>
</g>
<g>
</g>
<g>
</g>
<g>
</g>
<g>
</g>
<g>
</g>
<g>
</g>
<g>
</g>
<g>
</g>
<g>
</g>
<g>
</g>
<g>
</g>
<g>
</g>
<g>
</g>
<g>
</g>
<g>
</g>
</svg>
