<svg xmlns="http://www.w3.org/2000/svg" xmlns:xlink="http://www.w3.org/1999/xlink" version="1.1" x="0px" y="0px" viewBox="0 0 100 125" enable-background="new 0 0 100 100" xml:space="preserve"><g><g><path d="M96.411,49.268C91.413,30.463,68.379,17.831,50,17.831c-18.474,0-42.487,12.91-47.411,31.437L2.395,50l0.194,0.732    C7.513,69.259,31.526,82.169,50,82.169c18.379,0,41.413-12.632,46.411-31.437L96.605,50L96.411,49.268z M50,76.464    c-16.147,0-36.989-10.83-41.69-26.464C13.011,34.366,33.853,23.536,50,23.536c15.682,0,36.005,10.83,40.69,26.464    C86.005,65.634,65.682,76.464,50,76.464z M50.25,33.052c-9.637,0-17.448,7.812-17.448,17.448s7.812,17.448,17.448,17.448    S67.698,60.137,67.698,50.5S59.887,33.052,50.25,33.052z"/></g></g></svg>