<svg xmlns="http://www.w3.org/2000/svg" xmlns:xlink="http://www.w3.org/1999/xlink" version="1.1" x="0px" y="0px" viewBox="0 0 100 125" enable-background="new 0 0 100 100" xml:space="preserve"><path d="M92.789,38.948l-26.47-0.545c-2.531-0.051-5.284-2.054-6.11-4.438L51.51,8.951c-0.826-2.385-2.196-2.385-3.021,0  l-1.085,3.116L39.79,33.966c-0.58,1.675-2.114,3.144-3.851,3.9c-0.736,0.317-1.505,0.523-2.259,0.538L7.213,38.948  C4.68,38.997,4.256,40.292,6.28,41.82l1.128,0.856l19.966,15.139c2.02,1.526,3.07,4.763,2.337,7.189l-7.669,25.335  c-0.732,2.423,0.368,3.227,2.445,1.775l21.737-15.121c2.076-1.443,5.476-1.443,7.553,0l19.226,13.375l2.511,1.746  c2.076,1.451,3.178,0.647,2.446-1.775l-7.67-25.335c-0.459-1.518-0.219-3.354,0.519-4.889c0.441-0.918,1.062-1.729,1.817-2.3  l18.531-14.052l2.563-1.943C95.743,40.292,95.32,38.997,92.789,38.948z"/></svg>