<?xml version="1.0" encoding="iso-8859-1"?>
<!-- Generator: Adobe Illustrator 19.0.0, SVG Export Plug-In . SVG Version: 6.00 Build 0)  -->
<svg version="1.1" id="Layer_1" xmlns="http://www.w3.org/2000/svg" xmlns:xlink="http://www.w3.org/1999/xlink" x="0px" y="0px"
	 viewBox="0 0 142.384 142.384" style="enable-background:new 0 0 142.384 142.384;" xml:space="preserve">
<g>
	
		<rect x="55.596" y="58.828" transform="matrix(0.0133 -0.9999 0.9999 0.0133 -11.5371 128.0033)" style="fill:#009658;" width="6.989" height="22.04"/>
	<g>
		<circle style="fill:#FFCC3B;" cx="103.776" cy="71.193" r="32.019"/>
		<path style="fill:#414042;" d="M76.843,43.531c7.388-7.195,17.137-11.081,27.45-10.944c21.287,0.286,38.371,17.835,38.088,39.121
			c-0.14,10.311-4.283,19.954-11.67,27.149c-7.392,7.193-17.14,11.079-27.453,10.94c-21.285-0.286-38.372-17.834-38.087-39.122
			C65.309,60.365,69.456,50.724,76.843,43.531z M121.517,89.413c4.864-4.738,7.597-11.09,7.687-17.88
			c0.188-14.022-11.067-25.578-25.087-25.767c-6.792-0.093-13.214,2.468-18.082,7.203c-4.865,4.74-7.598,11.092-7.686,17.883
			c-0.188,14.02,11.067,25.581,25.087,25.769C110.228,96.711,116.65,94.152,121.517,89.413z"/>
	</g>
	<path style="fill:#414042;" d="M5.663,77.766c-8.365-0.11-6.755-16.693,0.223-16.664c6.977,0.033,46.933,0.211,46.933,0.211
		l-0.223,16.663C52.595,77.976,12.871,77.874,5.663,77.766z"/>
</g>
<g>
</g>
<g>
</g>
<g>
</g>
<g>
</g>
<g>
</g>
<g>
</g>
<g>
</g>
<g>
</g>
<g>
</g>
<g>
</g>
<g>
</g>
<g>
</g>
<g>
</g>
<g>
</g>
<g>
</g>
</svg>
