<?xml version="1.0" encoding="iso-8859-1"?>
<!-- Generator: Adobe Illustrator 16.0.0, SVG Export Plug-In . SVG Version: 6.00 Build 0)  -->
<!DOCTYPE svg PUBLIC "-//W3C//DTD SVG 1.1//EN" "http://www.w3.org/Graphics/SVG/1.1/DTD/svg11.dtd">
<svg version="1.1" id="Capa_1" xmlns="http://www.w3.org/2000/svg" xmlns:xlink="http://www.w3.org/1999/xlink" x="0px" y="0px"
	 width="32px" viewBox="0 0 79.536 79.536" style="enable-background:new 0 0 79.536 79.536;"
	 xml:space="preserve">
<g>
	<path style="fill:#565a5c;" d="M49.716,54.77c-0.011,2.547-4.293,4.634-9.608,4.634c-5.303,0-9.587-2.087-9.603-4.634
		c0.016-2.559,4.3-4.63,9.603-4.64C45.423,50.14,49.705,52.211,49.716,54.77z M59.994,54.77c-0.021,5.312-8.896,9.6-19.887,9.6
		c-10.975,0-19.863-4.287-19.879-9.6c0.016-5.308,8.904-9.59,19.879-9.601C51.098,45.18,59.974,49.462,59.994,54.77z M53.812,54.77
		c0-3.656-6.126-6.618-13.704-6.618c-7.565,0-13.707,2.962-13.707,6.618c0,3.655,6.141,6.612,13.707,6.612
		C47.686,61.382,53.812,58.425,53.812,54.77z M79.536,55.856c0,11.402-17.803,20.64-39.768,20.64C17.811,76.496,0,67.27,0,55.856
		c0-11.392,17.811-20.632,39.769-20.632C61.733,35.225,79.536,44.465,79.536,55.856z M73.706,54.77
		c0-8.948-15.038-16.213-33.599-16.213c-18.548,0-33.585,7.265-33.585,16.213c0,8.947,15.038,16.218,33.585,16.218
		C58.668,70.977,73.706,63.717,73.706,54.77z M69.584,54.77c-0.026,7.85-13.194,14.219-29.477,14.239
		c-16.272-0.021-29.443-6.39-29.487-14.239c0.044-7.861,13.209-14.225,29.487-14.24C56.39,40.545,69.558,46.908,69.584,54.77z
		 M64.11,54.77c0-6.396-10.744-11.589-23.998-11.589c-13.256,0-23.993,5.188-23.993,11.589c0,6.399,10.737,11.588,23.993,11.588
		C53.355,66.348,64.11,61.164,64.11,54.77z M51.021,20.94c-7.151,6.107,2.739,11.687,2.739,11.687s-3.423-3.829,1.802-8.246
		c7.901-6.638-0.078-12.042-0.078-12.042S57.478,15.431,51.021,20.94z M41.146,22.52c0,0,9.394-2.071,4.505-11.156
		c-3.231-6.027,1.347-8.323,1.347-8.323s-11.247,1.548-6.849,9.856C44.128,20.395,41.146,22.52,41.146,22.52z M27.201,21.577
		c-5.313,7.768,5.701,10.545,5.701,10.545s-4.305-2.789-0.419-8.415c5.875-8.489-3.239-11.596-3.239-11.596
		S31.978,14.556,27.201,21.577z"/>
</g>

</svg>
