<?xml version="1.0" encoding="iso-8859-1"?>
<!-- Generator: Adobe Illustrator 19.0.0, SVG Export Plug-In . SVG Version: 6.00 Build 0)  -->
<svg version="1.1" id="Layer_1" xmlns="http://www.w3.org/2000/svg" xmlns:xlink="http://www.w3.org/1999/xlink" x="0px" y="0px"
	 viewBox="0 0 392.527 392.527" style="enable-background:new 0 0 392.527 392.527;" xml:space="preserve">
<path style="fill:#FFFFFF;" d="M196.264,29.16c-28.444,34.457-83.782,72.663-131.297,83.071v17.131
	C64.514,225.75,117.46,318.13,196.264,368.812c81.131-51.782,131.297-142.869,131.297-239.386v-17.131
	C280.046,101.758,224.708,63.616,196.264,29.16z"/>
<path style="fill:#56ACE0;" d="M196.264,61.031c-28.832,27.927-69.754,54.756-109.511,67.685c0,0,0.129,6.271,0.259,9.115h34.327
	c6.012,0,10.925,4.848,10.925,10.925c0,6.012-4.848,10.925-10.925,10.925H88.563c0.84,7.37,2.133,14.61,3.62,21.786h7.176
	c6.012,0,10.925,4.848,10.925,10.925c0,6.077-4.848,10.925-10.925,10.925h-1.745c16.485,55.467,51.006,104.857,98.586,139.119
	c68.008-48.808,109.511-128.711,109.511-213.139C305.775,129.362,227.423,107.705,196.264,61.031z"/>
<g>
	<path style="fill:#194F82;" d="M339.973,92.255c-48.679-6.917-112.291-52.687-134.529-87.402c-4.59-6.853-14.675-6.077-18.36,0
		c-22.238,34.715-85.915,80.42-134.529,87.402c-5.43,0.776-9.374,5.301-9.374,10.796v26.246
		c0,106.343,56.501,206.545,147.459,261.624c4.848,2.392,8.339,1.875,11.313,0c90.893-55.014,147.394-155.216,147.394-261.56
		v-26.246C349.346,97.685,345.403,93.031,339.973,92.255z M327.561,129.362c0,96.517-50.166,187.604-131.297,239.386
		C117.46,318.13,64.514,225.685,64.967,129.362v-17.131c47.515-10.473,102.853-48.614,131.297-83.071
		c28.444,34.457,83.782,72.663,131.297,83.071V129.362z"/>
	<path style="fill:#194F82;" d="M207.189,151.212c0-6.012-4.848-10.925-10.925-10.925c-6.077,0-10.925,4.848-10.925,10.925v34.069
		H151.27c-6.012,0-10.925,4.848-10.925,10.925s4.848,10.925,10.925,10.925h34.069V241.2c0,6.012,4.848,10.925,10.925,10.925
		c6.012,0,10.925-4.848,10.925-10.925v-34.069h34.069c6.012,0,10.925-4.848,10.925-10.925s-4.848-10.925-10.925-10.925h-34.069
		V151.212z"/>
</g>
<g>
</g>
<g>
</g>
<g>
</g>
<g>
</g>
<g>
</g>
<g>
</g>
<g>
</g>
<g>
</g>
<g>
</g>
<g>
</g>
<g>
</g>
<g>
</g>
<g>
</g>
<g>
</g>
<g>
</g>
</svg>
