<svg xmlns="http://www.w3.org/2000/svg" xmlns:xlink="http://www.w3.org/1999/xlink" version="1.1" x="0px" y="0px" viewBox="0 0 32 32" style="enable-background:new 0 0 32 32;" xml:space="preserve"><style type="text/css">
	.st0{fill:#010101;}
</style><g><g><path class="st0" d="M21.6,7.9L21.6,7.9c0,0.2,0.1,0.4,0.3,0.5c2.8,2,4.5,5.5,4.1,9.3c-0.5,4.7-4.3,8.4-8.9,9    C11,27.4,5.8,22.6,5.8,16.6c0-3.4,1.7-6.4,4.2-8.2c0.2-0.1,0.3-0.3,0.3-0.5v0c0-0.6-0.6-0.9-1.1-0.5c-3.2,2.3-5.1,6.2-4.7,10.4    c0.5,5.4,4.8,9.7,10.1,10.3c6.9,0.8,12.8-4.7,12.8-11.4c0-3.8-1.9-7.2-4.7-9.3C22.3,7,21.6,7.3,21.6,7.9z"></path></g><path class="st0" d="M16,13.2L16,13.2c-0.4,0-0.8-0.3-0.8-0.8V4.3c0-0.4,0.3-0.8,0.8-0.8h0c0.4,0,0.8,0.3,0.8,0.8   v8.2C16.7,12.9,16.4,13.2,16,13.2z"></path></g></svg>