<?xml version="1.0" encoding="iso-8859-1"?>
<!-- Generator: Adobe Illustrator 19.0.0, SVG Export Plug-In . SVG Version: 6.00 Build 0)  -->
<svg version="1.1" id="Layer_1" xmlns="http://www.w3.org/2000/svg" xmlns:xlink="http://www.w3.org/1999/xlink" x="0px" y="0px"
	 viewBox="0 0 512 512" style="enable-background:new 0 0 512 512;" xml:space="preserve">
<g>
	<path style="fill:#6C747A;" d="M74.667,490.667c-1.067,0-3.2,0-4.267-1.067c-4.267-2.133-6.4-5.333-6.4-9.6v-74.667h21.333V454.4
		l45.867-45.867c2.133-2.133,4.267-3.2,7.467-3.2h298.667c6.4,0,10.667-4.267,10.667-10.667V192h21.333v202.667
		c0,18.133-13.867,32-32,32h-294.4l-60.8,60.8C80,489.6,77.867,490.667,74.667,490.667z"/>
	<path style="fill:#6C747A;" d="M42.667,426.667H32c-18.133,0-32-13.867-32-32V96c0-18.133,13.867-32,32-32h309.333v21.333H32
		c-6.4,0-10.667,4.267-10.667,10.667v298.667c0,6.4,4.267,10.667,10.667,10.667h10.667V426.667z"/>
</g>
<circle style="fill:#FD7130;" cx="437.333" cy="96" r="74.667"/>
<rect x="426.667" y="64" style="fill:#FFFFFF;" width="21.333" height="64"/>
<g>
	<rect x="181.333" y="234.667" style="fill:#6C747A;" width="21.333" height="21.333"/>
	<rect x="224" y="234.667" style="fill:#6C747A;" width="21.333" height="21.333"/>
	<rect x="266.667" y="234.667" style="fill:#6C747A;" width="21.333" height="21.333"/>
</g>
<g>
</g>
<g>
</g>
<g>
</g>
<g>
</g>
<g>
</g>
<g>
</g>
<g>
</g>
<g>
</g>
<g>
</g>
<g>
</g>
<g>
</g>
<g>
</g>
<g>
</g>
<g>
</g>
<g>
</g>
</svg>
