<svg xmlns:x="http://ns.adobe.com/Extensibility/1.0/" xmlns:i="http://ns.adobe.com/AdobeIllustrator/10.0/" xmlns:graph="http://ns.adobe.com/Graphs/1.0/" xmlns="http://www.w3.org/2000/svg" xmlns:xlink="http://www.w3.org/1999/xlink" version="1.1" id="Your_Icon" x="0px" y="0px" width="100px" height="100px" viewBox="5.0 -10.0 100.0 135.0" enable-background="new 0 0 100 100" xml:space="preserve">
<switch>
	<g i:extraneous="self">
		<g>
			<g>
				<g>
					<g>
					</g>
				</g>
				<g>
				</g>
			</g>
		</g>
		<g>
			<polygon points="59.963,75.904 62.69,73.157 65.419,75.906 66.327,74.989 63.599,72.24 66.327,69.492 65.419,68.577      62.69,71.324 59.963,68.577 59.054,69.492 61.781,72.24 59.054,74.989    "/>
			<rect x="30.714" y="35.633" width="19.688" height="2.591"/>
			<path d="M23.643,28.927h-1.285v51.822c0,3.215,2.595,5.83,5.785,5.83h43.715c3.19,0,5.785-2.615,5.785-5.83V28.927h-1.285v51.822     c0,2.5-2.02,4.534-4.5,4.534H28.143c-2.48,0-4.5-2.034-4.5-4.534V28.927z"/>
			<path d="M80.348,19.858h-4.369v2.591h4.369c1.669,0,3.081,1.78,3.081,3.886v62.186c0,2.145-1.73,3.887-3.858,3.887H20.43     c-2.128,0-3.858-1.742-3.858-3.887V26.336c0-2.143,1.496-3.886,3.334-3.886h4.619v-2.591h-4.619     c-3.256,0-5.905,2.906-5.905,6.478v62.186C14,92.094,16.884,95,20.43,95H79.57c3.546,0,6.43-2.906,6.43-6.479V26.336     C86,22.765,83.464,19.858,80.348,19.858z"/>
			<path d="M70.295,17.829H61.86l-0.342-1.526C61.355,10.042,56.253,5,50,5c-6.25,0-11.355,5.042-11.518,11.303l-0.343,1.526h-8.435     v7.113h40.59V17.829z M43.414,17.829l0.145-0.649l0.063-0.57c0-3.544,2.861-6.427,6.378-6.427c3.518,0,6.378,2.883,6.378,6.427     l0.265,1.219H43.414z"/>
			<rect x="30.714" y="59.006" width="19.753" height="1.295"/>
			<rect x="30.714" y="54.021" width="38.572" height="1.296"/>
			<rect x="30.714" y="48.862" width="38.572" height="1.296"/>
			<rect x="56.096" y="77.878" width="13.19" height="1.296"/>
		</g>
	</g>
</switch>

</svg>